<?xml version="1.0" encoding="UTF-8"?>
<svg xmlns="http://www.w3.org/2000/svg" xmlns:xlink="http://www.w3.org/1999/xlink" width="45px" height="40px" viewBox="0 0 44 40" version="1.1">
<g id="surface1">
<path style=" stroke:none;fill-rule:evenodd;fill:rgb(94.901961%,94.901961%,94.901961%);fill-opacity:1;" d="M -0.0234375 -0.0234375 C 14.644531 -0.0234375 29.308594 -0.0234375 43.976562 -0.0234375 C 43.976562 12.726562 43.976562 25.476562 43.976562 38.226562 C 43.730469 38.226562 43.488281 38.226562 43.242188 38.226562 C 43.242188 37.976562 43.242188 37.726562 43.242188 37.476562 C 42.996094 37.476562 42.753906 37.476562 42.507812 37.476562 C 42.507812 37.226562 42.507812 36.976562 42.507812 36.726562 C 42.265625 36.726562 42.019531 36.726562 41.773438 36.726562 C 41.773438 36.476562 41.773438 36.226562 41.773438 35.976562 C 41.53125 35.976562 41.285156 35.976562 41.042969 35.976562 C 41.042969 35.726562 41.042969 35.476562 41.042969 35.226562 C 40.796875 35.226562 40.554688 35.226562 40.308594 35.226562 C 40.308594 34.976562 40.308594 34.726562 40.308594 34.476562 C 40.066406 34.476562 39.820312 34.476562 39.574219 34.476562 C 39.574219 34.226562 39.574219 33.976562 39.574219 33.726562 C 39.332031 33.726562 39.085938 33.726562 38.84375 33.726562 C 38.84375 33.476562 38.84375 33.226562 38.84375 32.976562 C 38.628906 32.984375 38.417969 32.976562 38.207031 32.949219 C 38.265625 32.914062 38.265625 32.890625 38.207031 32.875 C 39.398438 31.570312 40.320312 30.089844 40.96875 28.425781 C 41.566406 26.40625 41.683594 24.355469 41.3125 22.273438 C 40.851562 19.367188 39.800781 16.71875 38.15625 14.324219 C 38.363281 14.226562 38.59375 14.195312 38.84375 14.226562 C 38.84375 13.976562 38.84375 13.726562 38.84375 13.476562 C 38.597656 13.476562 38.351562 13.476562 38.109375 13.476562 C 38.109375 13.226562 38.109375 12.976562 38.109375 12.726562 C 37.863281 12.726562 37.617188 12.726562 37.375 12.726562 C 37.375 12.476562 37.375 12.226562 37.375 11.976562 C 37.132812 11.976562 36.886719 11.976562 36.644531 11.976562 C 36.644531 11.726562 36.644531 11.476562 36.644531 11.226562 C 36.398438 11.226562 36.152344 11.226562 35.910156 11.226562 C 35.910156 10.976562 35.910156 10.726562 35.910156 10.476562 C 35.664062 10.476562 35.417969 10.476562 35.175781 10.476562 C 35.175781 10.226562 35.175781 9.976562 35.175781 9.726562 C 34.929688 9.726562 34.6875 9.726562 34.441406 9.726562 C 34.441406 9.476562 34.441406 9.226562 34.441406 8.976562 C 34.195312 8.976562 33.953125 8.976562 33.710938 8.976562 C 33.722656 9.195312 33.707031 9.414062 33.660156 9.625 C 31.660156 8.078125 29.511719 6.769531 27.207031 5.699219 C 28.273438 3.726562 27.867188 2.160156 25.984375 1 C 24.359375 0.164062 22.902344 0.40625 21.609375 1.726562 C 21.175781 2.445312 21.078125 3.210938 21.316406 4.023438 C 21.417969 4.230469 21.492188 4.449219 21.535156 4.675781 C 19.441406 4.976562 17.351562 5.332031 15.277344 5.75 C 14.890625 5.839844 14.503906 5.945312 14.128906 6.074219 C 13.65625 4.871094 12.882812 3.929688 11.808594 3.25 C 10.765625 2.777344 9.769531 2.871094 8.824219 3.523438 C 8.777344 3.351562 8.757812 3.167969 8.773438 2.976562 C 8.53125 2.976562 8.285156 2.976562 8.042969 2.976562 C 8.042969 3.226562 8.042969 3.476562 8.042969 3.726562 C 7.796875 3.726562 7.554688 3.726562 7.308594 3.726562 C 7.308594 3.976562 7.308594 4.226562 7.308594 4.476562 C 7.066406 4.476562 6.820312 4.476562 6.574219 4.476562 C 6.574219 4.726562 6.574219 4.976562 6.574219 5.226562 C 6.820312 5.226562 7.066406 5.226562 7.308594 5.226562 C 7.308594 5.476562 7.308594 5.726562 7.308594 5.976562 C 7.066406 5.976562 6.820312 5.976562 6.574219 5.976562 C 6.574219 6.226562 6.574219 6.476562 6.574219 6.726562 C 6.820312 6.726562 7.066406 6.726562 7.308594 6.726562 C 7.308594 6.976562 7.308594 7.226562 7.308594 7.476562 C 7.066406 7.476562 6.820312 7.476562 6.574219 7.476562 C 6.574219 7.726562 6.574219 7.976562 6.574219 8.226562 C 6.820312 8.226562 7.066406 8.226562 7.308594 8.226562 C 7.308594 8.476562 7.308594 8.726562 7.308594 8.976562 C 7.554688 8.976562 7.796875 8.976562 8.042969 8.976562 C 8.042969 9.226562 8.042969 9.476562 8.042969 9.726562 C 7.796875 9.726562 7.554688 9.726562 7.308594 9.726562 C 7.308594 9.976562 7.308594 10.226562 7.308594 10.476562 C 7.066406 10.476562 6.820312 10.476562 6.574219 10.476562 C 6.574219 10.726562 6.574219 10.976562 6.574219 11.226562 C 6.804688 11.226562 7.03125 11.226562 7.257812 11.226562 C 6.253906 12.527344 5.335938 13.894531 4.496094 15.324219 C 3.761719 16.664062 3.214844 18.082031 2.859375 19.574219 C 2.644531 19.480469 2.417969 19.449219 2.175781 19.476562 C 2.175781 19.726562 2.175781 19.976562 2.175781 20.226562 C 1.929688 20.226562 1.6875 20.226562 1.441406 20.226562 C 1.441406 20.476562 1.441406 20.726562 1.441406 20.976562 C 1.6875 20.976562 1.929688 20.976562 2.175781 20.976562 C 2.175781 21.226562 2.175781 21.476562 2.175781 21.726562 C 1.929688 21.726562 1.6875 21.726562 1.441406 21.726562 C 1.441406 21.976562 1.441406 22.226562 1.441406 22.476562 C 1.6875 22.476562 1.929688 22.476562 2.175781 22.476562 C 2.175781 22.726562 2.175781 22.976562 2.175781 23.226562 C 1.929688 23.226562 1.6875 23.226562 1.441406 23.226562 C 1.441406 23.476562 1.441406 23.726562 1.441406 23.976562 C 1.6875 23.976562 1.929688 23.976562 2.175781 23.976562 C 2.175781 24.226562 2.175781 24.476562 2.175781 24.726562 C 1.929688 24.726562 1.6875 24.726562 1.441406 24.726562 C 1.441406 24.976562 1.441406 25.226562 1.441406 25.476562 C 1.6875 25.476562 1.929688 25.476562 2.175781 25.476562 C 2.175781 25.726562 2.175781 25.976562 2.175781 26.226562 C 1.929688 26.226562 1.6875 26.226562 1.441406 26.226562 C 1.441406 26.476562 1.441406 26.726562 1.441406 26.976562 C 1.6875 26.976562 1.929688 26.976562 2.175781 26.976562 C 2.175781 27.226562 2.175781 27.476562 2.175781 27.726562 C 2.402344 27.734375 2.632812 27.726562 2.859375 27.699219 C 2.796875 27.632812 2.796875 27.578125 2.859375 27.523438 C 3.597656 30.175781 4.980469 32.398438 7.015625 34.199219 C 9.460938 36.292969 12.230469 37.769531 15.328125 38.625 C 15.304688 38.621094 15.289062 38.632812 15.277344 38.648438 C 15.363281 38.738281 15.394531 38.847656 15.375 38.976562 C 15.132812 38.976562 14.886719 38.976562 14.644531 38.976562 C 14.644531 39.226562 14.644531 39.476562 14.644531 39.726562 C 14.398438 39.726562 14.152344 39.726562 13.910156 39.726562 C 13.910156 39.476562 13.910156 39.226562 13.910156 38.976562 C 13.664062 38.976562 13.417969 38.976562 13.175781 38.976562 C 13.175781 39.226562 13.175781 39.476562 13.175781 39.726562 C 12.929688 39.726562 12.6875 39.726562 12.441406 39.726562 C 12.441406 39.476562 12.441406 39.226562 12.441406 38.976562 C 12.195312 38.976562 11.953125 38.976562 11.710938 38.976562 C 11.710938 39.226562 11.710938 39.476562 11.710938 39.726562 C 11.464844 39.726562 11.222656 39.726562 10.976562 39.726562 C 10.976562 39.476562 10.976562 39.226562 10.976562 38.976562 C 10.730469 38.976562 10.488281 38.976562 10.242188 38.976562 C 10.242188 39.226562 10.242188 39.476562 10.242188 39.726562 C 9.996094 39.726562 9.753906 39.726562 9.507812 39.726562 C 9.507812 39.476562 9.507812 39.226562 9.507812 38.976562 C 9.265625 38.976562 9.019531 38.976562 8.773438 38.976562 C 8.773438 39.226562 8.773438 39.476562 8.773438 39.726562 C 8.53125 39.726562 8.285156 39.726562 8.042969 39.726562 C 8.042969 39.476562 8.042969 39.226562 8.042969 38.976562 C 7.796875 38.976562 7.554688 38.976562 7.308594 38.976562 C 7.308594 39.226562 7.308594 39.476562 7.308594 39.726562 C 7.066406 39.726562 6.820312 39.726562 6.574219 39.726562 C 6.574219 39.476562 6.574219 39.226562 6.574219 38.976562 C 6.332031 38.976562 6.085938 38.976562 5.84375 38.976562 C 5.84375 39.226562 5.84375 39.476562 5.84375 39.726562 C 5.597656 39.726562 5.351562 39.726562 5.109375 39.726562 C 5.109375 39.476562 5.109375 39.226562 5.109375 38.976562 C 4.863281 38.976562 4.617188 38.976562 4.375 38.976562 C 4.375 39.226562 4.375 39.476562 4.375 39.726562 C 4.132812 39.726562 3.886719 39.726562 3.644531 39.726562 C 3.644531 39.476562 3.644531 39.226562 3.644531 38.976562 C 3.398438 38.976562 3.152344 38.976562 2.910156 38.976562 C 2.910156 39.226562 2.910156 39.476562 2.910156 39.726562 C 2.664062 39.726562 2.417969 39.726562 2.175781 39.726562 C 2.175781 39.476562 2.175781 39.226562 2.175781 38.976562 C 1.929688 38.976562 1.6875 38.976562 1.441406 38.976562 C 1.441406 39.226562 1.441406 39.476562 1.441406 39.726562 C 1.195312 39.726562 0.953125 39.726562 0.710938 39.726562 C 0.710938 39.476562 0.710938 39.226562 0.710938 38.976562 C 0.464844 38.976562 0.222656 38.976562 -0.0234375 38.976562 C -0.0234375 25.976562 -0.0234375 12.976562 -0.0234375 -0.0234375 Z M -0.0234375 -0.0234375 "/>
<path style=" stroke:none;fill-rule:evenodd;fill:rgb(11.372549%,13.333333%,10.196078%);fill-opacity:1;" d="M 33.660156 9.625 C 35.375 10.980469 36.875 12.546875 38.15625 14.324219 C 39.800781 16.71875 40.851562 19.367188 41.3125 22.273438 C 41.683594 24.355469 41.566406 26.40625 40.96875 28.425781 C 40.320312 30.089844 39.398438 31.570312 38.207031 32.875 C 37.90625 33.203125 37.597656 33.519531 37.277344 33.824219 C 34.875 35.886719 32.152344 37.378906 29.113281 38.300781 C 28.28125 38.53125 27.449219 38.738281 26.617188 38.925781 C 22.832031 39.675781 19.070312 39.574219 15.328125 38.625 C 12.230469 37.769531 9.460938 36.292969 7.015625 34.199219 C 4.980469 32.398438 3.597656 30.175781 2.859375 27.523438 C 2.28125 24.875 2.28125 22.226562 2.859375 19.574219 C 3.214844 18.082031 3.761719 16.664062 4.496094 15.324219 C 5.335938 13.894531 6.253906 12.527344 7.257812 11.226562 C 7.789062 10.625 8.296875 10 8.773438 9.351562 C 7.84375 8.671875 7.382812 7.738281 7.40625 6.550781 C 7.425781 5.308594 7.898438 4.300781 8.824219 3.523438 C 9.769531 2.871094 10.765625 2.777344 11.808594 3.25 C 12.882812 3.929688 13.65625 4.871094 14.128906 6.074219 C 14.503906 5.945312 14.890625 5.839844 15.277344 5.75 C 17.351562 5.332031 19.441406 4.976562 21.535156 4.675781 C 21.492188 4.449219 21.417969 4.230469 21.316406 4.023438 C 21.078125 3.210938 21.175781 2.445312 21.609375 1.726562 C 22.902344 0.40625 24.359375 0.164062 25.984375 1 C 27.867188 2.160156 28.273438 3.726562 27.207031 5.699219 C 29.511719 6.769531 31.660156 8.078125 33.660156 9.625 Z M 33.660156 9.625 "/>
<path style=" stroke:none;fill-rule:evenodd;fill:rgb(15.686275%,36.470588%,7.058824%);fill-opacity:1;" d="M 25.300781 2.476562 C 25.6875 3.152344 25.589844 3.753906 25.007812 4.273438 C 24.789062 4.492188 24.542969 4.648438 24.273438 4.75 C 23.839844 4.304688 23.476562 3.816406 23.171875 3.273438 C 22.90625 2.53125 23.15625 2.105469 23.929688 2 C 24.457031 1.957031 24.914062 2.113281 25.300781 2.476562 Z M 25.300781 2.476562 "/>
<path style=" stroke:none;fill-rule:evenodd;fill:rgb(61.568627%,96.078431%,48.235294%);fill-opacity:1;" d="M 25.300781 2.476562 C 26.085938 2.570312 26.589844 3 26.816406 3.773438 C 26.816406 4.042969 26.789062 4.308594 26.742188 4.574219 C 26.597656 5.019531 26.417969 5.433594 26.203125 5.824219 C 29.722656 7.304688 32.800781 9.441406 35.441406 12.226562 C 36.585938 13.507812 37.597656 14.894531 38.476562 16.375 C 38.8125 17.03125 39.125 17.695312 39.40625 18.375 C 39.53125 18.78125 39.605469 19.199219 39.625 19.625 C 39.136719 18.902344 38.640625 18.1875 38.132812 17.476562 C 37.5625 16.78125 36.949219 16.132812 36.300781 15.523438 C 36.128906 15.230469 35.914062 14.960938 35.664062 14.726562 C 35.402344 14.535156 35.125 14.382812 34.832031 14.273438 C 32.886719 12.804688 30.765625 11.628906 28.480469 10.75 C 23.351562 8.878906 18.121094 7.953125 12.78125 7.976562 C 12.734375 7.949219 12.726562 7.914062 12.757812 7.875 C 13.414062 7.261719 14.171875 6.835938 15.03125 6.601562 C 16.632812 6.144531 18.238281 5.886719 19.847656 5.824219 C 20.476562 5.769531 21.125 5.71875 21.804688 5.675781 C 22.265625 5.679688 22.757812 5.695312 23.269531 5.726562 C 24.164062 5.636719 24.742188 5.152344 25.007812 4.273438 C 25.589844 3.753906 25.6875 3.152344 25.300781 2.476562 Z M 25.300781 2.476562 "/>
<path style=" stroke:none;fill-rule:evenodd;fill:rgb(42.352941%,87.843137%,28.627451%);fill-opacity:1;" d="M 26.816406 3.773438 C 26.589844 3 26.085938 2.570312 25.300781 2.476562 C 24.914062 2.113281 24.457031 1.957031 23.929688 2 C 23.15625 2.105469 22.90625 2.53125 23.171875 3.273438 C 23.476562 3.816406 23.839844 4.304688 24.273438 4.75 C 24.542969 4.648438 24.789062 4.492188 25.007812 4.273438 C 24.742188 5.152344 24.164062 5.636719 23.269531 5.726562 C 22.757812 5.695312 22.265625 5.679688 21.804688 5.675781 C 21.125 5.71875 20.476562 5.769531 19.847656 5.824219 C 18.238281 5.886719 16.632812 6.144531 15.03125 6.601562 C 14.171875 6.835938 13.414062 7.261719 12.757812 7.875 C 12.726562 7.914062 12.734375 7.949219 12.78125 7.976562 C 18.121094 7.953125 23.351562 8.878906 28.480469 10.75 C 30.765625 11.628906 32.886719 12.804688 34.832031 14.273438 C 33.941406 14.066406 33.109375 14.207031 32.339844 14.699219 C 32 14.957031 31.804688 15.296875 31.753906 15.726562 C 32.105469 15.601562 32.464844 15.492188 32.828125 15.398438 C 33.585938 15.257812 34.320312 15.339844 35.027344 15.648438 C 35.5 15.917969 35.960938 16.195312 36.421875 16.476562 C 36.472656 16.417969 36.496094 16.351562 36.496094 16.273438 C 36.449219 16.019531 36.386719 15.769531 36.300781 15.523438 C 36.949219 16.132812 37.5625 16.78125 38.132812 17.476562 C 38.640625 18.1875 39.136719 18.902344 39.625 19.625 C 40.253906 21.675781 40.507812 23.773438 40.382812 25.925781 C 40.179688 27.796875 39.527344 29.480469 38.425781 30.976562 C 37.023438 32.902344 35.289062 34.429688 33.222656 35.550781 C 28.625 37.902344 23.769531 38.769531 18.652344 38.148438 C 14.511719 37.648438 10.8125 36.101562 7.554688 33.5 C 4.25 30.671875 2.777344 27.046875 3.128906 22.625 C 3.234375 20.230469 3.839844 17.980469 4.9375 15.875 C 5.476562 14.90625 6.0625 13.976562 6.695312 13.074219 C 7.820312 11.621094 8.9375 10.164062 10.046875 8.699219 C 8.773438 8.453125 8.121094 7.664062 8.089844 6.324219 C 8.101562 5.269531 8.523438 4.445312 9.359375 3.851562 C 11.0625 3.375 12.265625 3.964844 12.953125 5.625 C 13.113281 6.066406 13.246094 6.515625 13.347656 6.976562 C 14.105469 6.699219 14.878906 6.476562 15.667969 6.300781 C 17.902344 5.90625 20.132812 5.507812 22.367188 5.101562 C 22.390625 5.078125 22.40625 5.054688 22.414062 5.023438 C 22.09375 4.597656 21.871094 4.113281 21.753906 3.574219 C 21.613281 2.882812 21.816406 2.324219 22.367188 1.898438 C 23.539062 1.132812 24.714844 1.132812 25.886719 1.898438 C 26.460938 2.386719 26.773438 3.011719 26.816406 3.773438 Z M 26.816406 3.773438 "/>
<path style=" stroke:none;fill-rule:evenodd;fill:rgb(91.372549%,91.372549%,91.372549%);fill-opacity:1;" d="M 8.824219 3.523438 C 7.898438 4.300781 7.425781 5.308594 7.40625 6.550781 C 7.382812 7.738281 7.84375 8.671875 8.773438 9.351562 C 8.296875 10 7.789062 10.625 7.257812 11.226562 C 7.03125 11.226562 6.804688 11.226562 6.574219 11.226562 C 6.574219 10.976562 6.574219 10.726562 6.574219 10.476562 C 6.820312 10.476562 7.066406 10.476562 7.308594 10.476562 C 7.308594 10.226562 7.308594 9.976562 7.308594 9.726562 C 7.554688 9.726562 7.796875 9.726562 8.042969 9.726562 C 8.042969 9.476562 8.042969 9.226562 8.042969 8.976562 C 7.796875 8.976562 7.554688 8.976562 7.308594 8.976562 C 7.308594 8.726562 7.308594 8.476562 7.308594 8.226562 C 7.066406 8.226562 6.820312 8.226562 6.574219 8.226562 C 6.574219 7.976562 6.574219 7.726562 6.574219 7.476562 C 6.820312 7.476562 7.066406 7.476562 7.308594 7.476562 C 7.308594 7.226562 7.308594 6.976562 7.308594 6.726562 C 7.066406 6.726562 6.820312 6.726562 6.574219 6.726562 C 6.574219 6.476562 6.574219 6.226562 6.574219 5.976562 C 6.820312 5.976562 7.066406 5.976562 7.308594 5.976562 C 7.308594 5.726562 7.308594 5.476562 7.308594 5.226562 C 7.066406 5.226562 6.820312 5.226562 6.574219 5.226562 C 6.574219 4.976562 6.574219 4.726562 6.574219 4.476562 C 6.820312 4.476562 7.066406 4.476562 7.308594 4.476562 C 7.308594 4.226562 7.308594 3.976562 7.308594 3.726562 C 7.554688 3.726562 7.796875 3.726562 8.042969 3.726562 C 8.042969 3.476562 8.042969 3.226562 8.042969 2.976562 C 8.285156 2.976562 8.53125 2.976562 8.773438 2.976562 C 8.757812 3.167969 8.777344 3.351562 8.824219 3.523438 Z M 8.824219 3.523438 "/>
<path style=" stroke:none;fill-rule:evenodd;fill:rgb(15.686275%,36.470588%,7.058824%);fill-opacity:1;" d="M 10.976562 4.476562 C 11.371094 4.398438 11.671875 4.53125 11.882812 4.875 C 12.167969 5.472656 12.210938 6.085938 12.027344 6.726562 C 11.917969 7.003906 11.722656 7.167969 11.4375 7.226562 C 10.90625 7.046875 10.449219 6.746094 10.070312 6.324219 C 9.832031 5.929688 9.847656 5.546875 10.117188 5.175781 C 10.359375 4.871094 10.644531 4.640625 10.976562 4.476562 Z M 10.976562 4.476562 "/>
<path style=" stroke:none;fill-rule:evenodd;fill:rgb(98.039216%,98.039216%,98.039216%);fill-opacity:1;" d="M 38.15625 14.324219 C 36.875 12.546875 35.375 10.980469 33.660156 9.625 C 33.707031 9.414062 33.722656 9.195312 33.710938 8.976562 C 33.953125 8.976562 34.195312 8.976562 34.441406 8.976562 C 34.441406 9.226562 34.441406 9.476562 34.441406 9.726562 C 34.6875 9.726562 34.929688 9.726562 35.175781 9.726562 C 35.175781 9.976562 35.175781 10.226562 35.175781 10.476562 C 35.417969 10.476562 35.664062 10.476562 35.910156 10.476562 C 35.910156 10.726562 35.910156 10.976562 35.910156 11.226562 C 36.152344 11.226562 36.398438 11.226562 36.644531 11.226562 C 36.644531 11.476562 36.644531 11.726562 36.644531 11.976562 C 36.886719 11.976562 37.132812 11.976562 37.375 11.976562 C 37.375 12.226562 37.375 12.476562 37.375 12.726562 C 37.617188 12.726562 37.863281 12.726562 38.109375 12.726562 C 38.109375 12.976562 38.109375 13.226562 38.109375 13.476562 C 38.351562 13.476562 38.597656 13.476562 38.84375 13.476562 C 38.84375 13.726562 38.84375 13.976562 38.84375 14.226562 C 38.59375 14.195312 38.363281 14.226562 38.15625 14.324219 Z M 38.15625 14.324219 "/>
<path style=" stroke:none;fill-rule:evenodd;fill:rgb(15.686275%,36.470588%,7.058824%);fill-opacity:1;" d="M 34.832031 14.273438 C 35.125 14.382812 35.402344 14.535156 35.664062 14.726562 C 35.914062 14.960938 36.128906 15.230469 36.300781 15.523438 C 36.386719 15.769531 36.449219 16.019531 36.496094 16.273438 C 36.496094 16.351562 36.472656 16.417969 36.421875 16.476562 C 35.960938 16.195312 35.5 15.917969 35.027344 15.648438 C 34.320312 15.339844 33.585938 15.257812 32.828125 15.398438 C 32.464844 15.492188 32.105469 15.601562 31.753906 15.726562 C 31.804688 15.296875 32 14.957031 32.339844 14.699219 C 33.109375 14.207031 33.941406 14.066406 34.832031 14.273438 Z M 34.832031 14.273438 "/>
<path style=" stroke:none;fill-rule:evenodd;fill:rgb(15.686275%,36.470588%,7.058824%);fill-opacity:1;" d="M 8.582031 15.125 C 9.535156 15.054688 10.328125 15.382812 10.949219 16.125 C 10.988281 16.179688 10.976562 16.230469 10.925781 16.273438 C 10.398438 16.351562 9.875 16.390625 9.359375 16.398438 C 8.472656 16.507812 7.691406 16.855469 7.015625 17.449219 C 6.664062 17.828125 6.328125 18.21875 6.011719 18.625 C 5.804688 18.167969 5.785156 17.703125 5.964844 17.226562 C 6.5 16.085938 7.371094 15.382812 8.582031 15.125 Z M 8.582031 15.125 "/>
<path style=" stroke:none;fill-rule:evenodd;fill:rgb(40%,60.784314%,0.784314%);fill-opacity:1;" d="M 30.628906 19.625 C 30.644531 19.722656 30.683594 19.804688 30.75 19.875 C 31.605469 18.339844 32.902344 17.625 34.640625 17.726562 C 36.320312 18.039062 37.4375 19.023438 37.988281 20.675781 C 38.058594 20.972656 38.117188 21.273438 38.15625 21.574219 C 38.210938 23.421875 37.429688 24.796875 35.8125 25.699219 C 34.167969 26.394531 32.664062 26.070312 31.3125 24.726562 C 31.171875 24.539062 31.035156 24.359375 30.898438 24.175781 C 30.746094 24.609375 30.59375 25.042969 30.433594 25.476562 C 29.558594 27.179688 28.335938 28.5625 26.765625 29.625 C 26.265625 31.261719 25.207031 32.320312 23.589844 32.800781 C 21.769531 33.261719 20.089844 32.914062 18.554688 31.75 C 17.96875 31.238281 17.527344 30.617188 17.234375 29.898438 C 17.066406 29.78125 16.886719 29.691406 16.695312 29.625 C 15.445312 28.8125 14.402344 27.777344 13.566406 26.523438 C 13.332031 26.101562 13.113281 25.664062 12.90625 25.226562 C 11.953125 26.734375 10.632812 27.5 8.945312 27.523438 C 6.917969 27.335938 5.550781 26.253906 4.839844 24.273438 C 4.691406 23.722656 4.617188 23.171875 4.617188 22.625 C 4.914062 20.257812 6.21875 18.824219 8.53125 18.324219 C 10.363281 18.179688 11.808594 18.898438 12.855469 20.476562 C 12.898438 20.378906 12.921875 20.277344 12.929688 20.175781 C 13.570312 18.929688 14.53125 18.039062 15.816406 17.5 C 17.527344 16.773438 19.296875 16.347656 21.117188 16.226562 C 23.191406 16.097656 25.234375 16.355469 27.253906 17 C 28.308594 17.367188 29.226562 17.941406 30.015625 18.726562 C 30.253906 19.007812 30.457031 19.304688 30.628906 19.625 Z M 30.628906 19.625 "/>
<path style=" stroke:none;fill-rule:evenodd;fill:rgb(64.313725%,91.372549%,0%);fill-opacity:1;" d="M 30.238281 21.726562 C 30.007812 20.929688 29.585938 20.253906 28.96875 19.699219 C 28.050781 18.964844 27.039062 18.398438 25.933594 18 C 25.042969 17.671875 24.125 17.421875 23.195312 17.25 C 25.144531 18.023438 26.816406 19.199219 28.210938 20.773438 C 29.15625 21.992188 29.5625 23.324219 29.429688 24.773438 C 29.820312 24.226562 30.089844 23.628906 30.238281 22.976562 C 30.082031 24.398438 29.570312 25.664062 28.695312 26.773438 C 26.757812 29.25 24.246094 30.46875 21.167969 30.425781 C 18.691406 30.140625 16.609375 29.074219 14.910156 27.226562 C 13.191406 25.140625 12.769531 22.875 13.640625 20.425781 C 14.015625 19.644531 14.558594 19.019531 15.277344 18.550781 C 17.066406 17.539062 18.949219 16.996094 20.925781 16.925781 C 22.8125 16.738281 24.695312 16.929688 26.570312 17.5 C 27.851562 17.875 28.882812 18.601562 29.675781 19.675781 C 30.007812 20.316406 30.195312 21 30.238281 21.726562 Z M 30.238281 21.726562 "/>
<path style=" stroke:none;fill-rule:evenodd;fill:rgb(76.470588%,99.607843%,30.588235%);fill-opacity:1;" d="M 30.238281 21.726562 C 30.300781 22.15625 30.300781 22.570312 30.238281 22.976562 C 30.089844 23.628906 29.820312 24.226562 29.429688 24.773438 C 29.5625 23.324219 29.15625 21.992188 28.210938 20.773438 C 26.816406 19.199219 25.144531 18.023438 23.195312 17.25 C 24.125 17.421875 25.042969 17.671875 25.933594 18 C 27.039062 18.398438 28.050781 18.964844 28.96875 19.699219 C 29.585938 20.253906 30.007812 20.929688 30.238281 21.726562 Z M 30.238281 21.726562 "/>
<path style=" stroke:none;fill-rule:evenodd;fill:rgb(29.019608%,71.764706%,16.862745%);fill-opacity:1;" d="M 34.640625 17.726562 C 32.902344 17.625 31.605469 18.339844 30.75 19.875 C 30.683594 19.804688 30.644531 19.722656 30.628906 19.625 C 31.488281 18.285156 32.683594 17.617188 34.222656 17.625 C 34.367188 17.65625 34.503906 17.691406 34.640625 17.726562 Z M 34.640625 17.726562 "/>
<path style=" stroke:none;fill-rule:evenodd;fill:rgb(29.019608%,71.764706%,16.862745%);fill-opacity:1;" d="M 12.929688 20.175781 C 12.921875 20.277344 12.898438 20.378906 12.855469 20.476562 C 11.808594 18.898438 10.363281 18.179688 8.53125 18.324219 C 10.347656 18.054688 11.816406 18.671875 12.929688 20.175781 Z M 12.929688 20.175781 "/>
<path style=" stroke:none;fill-rule:evenodd;fill:rgb(99.607843%,99.607843%,99.607843%);fill-opacity:1;" d="M 34.34375 18.324219 C 35.636719 18.429688 36.640625 19.03125 37.351562 20.125 C 38.113281 21.820312 37.777344 23.242188 36.347656 24.398438 C 34.777344 25.347656 33.261719 25.28125 31.804688 24.199219 C 31.480469 23.929688 31.234375 23.605469 31.070312 23.226562 C 31.203125 22.308594 31.152344 21.394531 30.921875 20.476562 C 31.175781 19.789062 31.617188 19.265625 32.242188 18.898438 C 32.902344 18.527344 33.605469 18.335938 34.34375 18.324219 Z M 34.34375 18.324219 "/>
<path style=" stroke:none;fill-rule:evenodd;fill:rgb(99.607843%,99.607843%,99.607843%);fill-opacity:1;" d="M 8.484375 19.023438 C 9.8125 18.878906 11.003906 19.238281 12.050781 20.101562 C 12.300781 20.367188 12.53125 20.648438 12.734375 20.949219 C 12.554688 21.535156 12.472656 22.132812 12.492188 22.75 C 12.472656 23.4375 12.570312 24.101562 12.78125 24.75 C 11.734375 26.308594 10.28125 26.960938 8.433594 26.699219 C 6.667969 26.339844 5.539062 25.273438 5.0625 23.5 C 4.917969 21.507812 5.765625 20.105469 7.601562 19.300781 C 7.898438 19.207031 8.195312 19.117188 8.484375 19.023438 Z M 8.484375 19.023438 "/>
<path style=" stroke:none;fill-rule:evenodd;fill:rgb(11.372549%,12.941176%,10.196078%);fill-opacity:1;" d="M 34.539062 19.226562 C 35.425781 19.238281 35.726562 19.671875 35.441406 20.523438 C 35.144531 20.878906 34.777344 20.96875 34.34375 20.800781 C 33.792969 20.335938 33.777344 19.851562 34.296875 19.351562 C 34.382812 19.3125 34.46875 19.273438 34.539062 19.226562 Z M 34.539062 19.226562 "/>
<path style=" stroke:none;fill-rule:evenodd;fill:rgb(91.764706%,91.764706%,91.764706%);fill-opacity:1;" d="M 2.859375 19.574219 C 2.28125 22.226562 2.28125 24.875 2.859375 27.523438 C 2.796875 27.578125 2.796875 27.632812 2.859375 27.699219 C 2.632812 27.726562 2.402344 27.734375 2.175781 27.726562 C 2.175781 27.476562 2.175781 27.226562 2.175781 26.976562 C 1.929688 26.976562 1.6875 26.976562 1.441406 26.976562 C 1.441406 26.726562 1.441406 26.476562 1.441406 26.226562 C 1.6875 26.226562 1.929688 26.226562 2.175781 26.226562 C 2.175781 25.976562 2.175781 25.726562 2.175781 25.476562 C 1.929688 25.476562 1.6875 25.476562 1.441406 25.476562 C 1.441406 25.226562 1.441406 24.976562 1.441406 24.726562 C 1.6875 24.726562 1.929688 24.726562 2.175781 24.726562 C 2.175781 24.476562 2.175781 24.226562 2.175781 23.976562 C 1.929688 23.976562 1.6875 23.976562 1.441406 23.976562 C 1.441406 23.726562 1.441406 23.476562 1.441406 23.226562 C 1.6875 23.226562 1.929688 23.226562 2.175781 23.226562 C 2.175781 22.976562 2.175781 22.726562 2.175781 22.476562 C 1.929688 22.476562 1.6875 22.476562 1.441406 22.476562 C 1.441406 22.226562 1.441406 21.976562 1.441406 21.726562 C 1.6875 21.726562 1.929688 21.726562 2.175781 21.726562 C 2.175781 21.476562 2.175781 21.226562 2.175781 20.976562 C 1.929688 20.976562 1.6875 20.976562 1.441406 20.976562 C 1.441406 20.726562 1.441406 20.476562 1.441406 20.226562 C 1.6875 20.226562 1.929688 20.226562 2.175781 20.226562 C 2.175781 19.976562 2.175781 19.726562 2.175781 19.476562 C 2.417969 19.449219 2.644531 19.480469 2.859375 19.574219 Z M 2.859375 19.574219 "/>
<path style=" stroke:none;fill-rule:evenodd;fill:rgb(11.764706%,16.470588%,8.627451%);fill-opacity:1;" d="M 20.019531 21.125 C 20 21.171875 19.964844 21.214844 19.921875 21.25 C 20.101562 21.339844 20.140625 21.464844 20.046875 21.625 C 20.011719 21.425781 19.980469 21.425781 19.945312 21.625 C 19.914062 21.425781 19.882812 21.425781 19.847656 21.625 C 19.722656 21.492188 19.535156 21.304688 19.285156 21.050781 C 19.351562 21.015625 19.351562 20.984375 19.285156 20.949219 C 19.222656 20.914062 19.15625 20.914062 19.089844 20.949219 C 19.210938 21.121094 19.351562 21.28125 19.507812 21.425781 C 19.539062 21.460938 19.539062 21.492188 19.507812 21.523438 C 19.28125 21.460938 19.101562 21.3125 18.96875 21.074219 C 18.9375 21.210938 18.902344 21.210938 18.871094 21.074219 C 18.855469 21.109375 18.839844 21.140625 18.824219 21.175781 C 18.789062 21.101562 18.75 21.035156 18.699219 20.976562 C 19.15625 20.824219 19.601562 20.875 20.019531 21.125 Z M 20.019531 21.125 "/>
<path style=" stroke:none;fill-rule:evenodd;fill:rgb(11.372549%,13.333333%,10.196078%);fill-opacity:1;" d="M 9.21875 20.976562 C 9.90625 20.996094 10.28125 21.367188 10.339844 22.074219 C 10.203125 22.976562 9.714844 23.285156 8.875 23 C 8.375 22.503906 8.300781 21.945312 8.652344 21.324219 C 8.8125 21.152344 9 21.035156 9.21875 20.976562 Z M 9.21875 20.976562 "/>
<path style=" stroke:none;fill-rule:evenodd;fill:rgb(10.196078%,11.764706%,8.627451%);fill-opacity:1;" d="M 20.070312 21.175781 C 20.289062 21.269531 20.472656 21.417969 20.605469 21.625 C 20.492188 21.703125 20.417969 21.671875 20.386719 21.523438 C 20.339844 21.644531 20.304688 21.628906 20.289062 21.476562 C 20.273438 21.523438 20.257812 21.574219 20.242188 21.625 C 20.226562 21.5625 20.203125 21.503906 20.167969 21.449219 C 20.183594 21.433594 20.199219 21.414062 20.21875 21.398438 C 20.148438 21.335938 20.101562 21.261719 20.070312 21.175781 Z M 20.070312 21.175781 "/>
<path style=" stroke:none;fill-rule:evenodd;fill:rgb(28.627451%,71.372549%,16.862745%);fill-opacity:1;" d="M 38.15625 21.574219 C 38.535156 23.523438 38.027344 25.234375 36.644531 26.699219 C 34.855469 28.144531 33.078125 28.125 31.3125 26.648438 C 30.953125 26.304688 30.660156 25.914062 30.433594 25.476562 C 30.59375 25.042969 30.746094 24.609375 30.898438 24.175781 C 31.035156 24.359375 31.171875 24.539062 31.3125 24.726562 C 32.664062 26.070312 34.167969 26.394531 35.8125 25.699219 C 37.429688 24.796875 38.210938 23.421875 38.15625 21.574219 Z M 38.15625 21.574219 "/>
<path style=" stroke:none;fill-rule:evenodd;fill:rgb(12.54902%,19.607843%,8.627451%);fill-opacity:1;" d="M 26.570312 23.675781 C 26.492188 23.585938 26.417969 23.484375 26.351562 23.375 C 26.332031 23.410156 26.320312 23.441406 26.304688 23.476562 C 26.074219 23.171875 25.84375 22.9375 25.617188 22.773438 C 25.601562 22.808594 25.585938 22.839844 25.570312 22.875 C 25.339844 22.570312 25.109375 22.335938 24.886719 22.175781 C 24.851562 22.308594 24.820312 22.308594 24.785156 22.175781 C 24.757812 22.300781 24.714844 22.300781 24.664062 22.175781 C 24.617188 22.214844 24.570312 22.226562 24.515625 22.199219 C 24.3125 21.992188 24.113281 21.785156 23.90625 21.574219 C 23.890625 21.488281 23.867188 21.402344 23.832031 21.324219 C 24.027344 21.175781 24.257812 21.082031 24.515625 21.050781 C 25.472656 20.84375 26.183594 21.167969 26.644531 22.023438 C 26.816406 22.589844 26.789062 23.140625 26.570312 23.675781 Z M 26.570312 23.675781 "/>
<path style=" stroke:none;fill-rule:evenodd;fill:rgb(11.372549%,14.509804%,9.019608%);fill-opacity:1;" d="M 20.65625 21.675781 C 20.976562 22.085938 21.167969 22.554688 21.242188 23.074219 C 21.246094 23.230469 21.222656 23.246094 21.167969 23.125 C 21.136719 23.257812 21.105469 23.257812 21.070312 23.125 C 21.039062 23.257812 21.003906 23.257812 20.972656 23.125 C 20.941406 23.257812 20.90625 23.257812 20.875 23.125 C 20.84375 23.257812 20.808594 23.257812 20.777344 23.125 C 20.746094 23.257812 20.714844 23.257812 20.679688 23.125 C 20.648438 23.257812 20.617188 23.257812 20.582031 23.125 C 20.546875 23.257812 20.515625 23.257812 20.484375 23.125 C 20.46875 23.160156 20.453125 23.191406 20.433594 23.226562 C 20.375 23.128906 20.375 23.046875 20.433594 22.976562 C 20.46875 23.109375 20.503906 23.109375 20.53125 22.976562 C 20.566406 23.109375 20.597656 23.109375 20.632812 22.976562 C 20.664062 23.109375 20.695312 23.109375 20.730469 22.976562 C 20.761719 23.109375 20.792969 23.109375 20.828125 22.976562 C 20.859375 23.109375 20.890625 23.109375 20.925781 22.976562 C 20.957031 23.109375 20.992188 23.109375 21.019531 22.976562 C 21.0625 23.09375 21.105469 23.085938 21.144531 22.949219 C 21.152344 22.851562 21.128906 22.761719 21.070312 22.675781 C 21.023438 22.792969 20.992188 22.777344 20.972656 22.625 C 20.941406 22.824219 20.90625 22.824219 20.875 22.625 C 20.859375 22.675781 20.84375 22.726562 20.828125 22.773438 C 20.804688 22.566406 20.714844 22.390625 20.558594 22.25 C 20.617188 22.144531 20.660156 22.152344 20.679688 22.273438 C 20.714844 22.140625 20.746094 22.140625 20.777344 22.273438 C 20.796875 22.226562 20.820312 22.1875 20.851562 22.148438 C 20.832031 22.039062 20.773438 21.929688 20.679688 21.824219 C 20.660156 21.945312 20.617188 21.957031 20.558594 21.851562 C 20.53125 21.773438 20.566406 21.710938 20.65625 21.675781 Z M 20.65625 21.675781 "/>
<path style=" stroke:none;fill-rule:evenodd;fill:rgb(11.372549%,16.470588%,8.235294%);fill-opacity:1;" d="M 18.554688 21.074219 C 18.925781 21.527344 19.324219 21.960938 19.75 22.375 C 19.785156 22.574219 19.816406 22.574219 19.847656 22.375 C 19.882812 22.574219 19.914062 22.574219 19.945312 22.375 C 20.011719 22.257812 20.058594 22.257812 20.09375 22.375 C 20.109375 22.339844 20.125 22.308594 20.144531 22.273438 C 20.191406 22.359375 20.242188 22.441406 20.289062 22.523438 C 20.320312 22.40625 20.371094 22.40625 20.433594 22.523438 C 20.46875 22.789062 20.503906 22.789062 20.53125 22.523438 C 20.554688 22.742188 20.585938 22.757812 20.632812 22.574219 C 20.664062 22.691406 20.664062 22.808594 20.632812 22.925781 C 20.597656 22.726562 20.566406 22.726562 20.53125 22.925781 C 20.503906 22.726562 20.46875 22.726562 20.433594 22.925781 C 20.402344 22.726562 20.371094 22.726562 20.335938 22.925781 C 20.304688 22.726562 20.273438 22.726562 20.242188 22.925781 C 20.207031 22.726562 20.171875 22.726562 20.144531 22.925781 C 20.109375 22.726562 20.074219 22.726562 20.046875 22.925781 C 20.011719 22.726562 19.980469 22.726562 19.945312 22.925781 C 19.863281 22.773438 19.75 22.660156 19.601562 22.574219 C 19.570312 22.375 19.539062 22.375 19.507812 22.574219 C 19.210938 22.269531 18.851562 21.902344 18.429688 21.476562 C 18.414062 21.375 18.375 21.289062 18.308594 21.226562 C 18.382812 21.164062 18.464844 21.113281 18.554688 21.074219 Z M 18.554688 21.074219 "/>
<path style=" stroke:none;fill-rule:evenodd;fill:rgb(13.333333%,23.137255%,8.235294%);fill-opacity:1;" d="M 20.019531 21.125 C 20.054688 21.125 20.070312 21.140625 20.070312 21.175781 C 20.101562 21.261719 20.148438 21.335938 20.21875 21.398438 C 20.199219 21.414062 20.183594 21.433594 20.167969 21.449219 C 20.203125 21.503906 20.226562 21.5625 20.242188 21.625 C 20.257812 21.574219 20.273438 21.523438 20.289062 21.476562 C 20.304688 21.628906 20.339844 21.644531 20.386719 21.523438 C 20.417969 21.671875 20.492188 21.703125 20.605469 21.625 C 20.640625 21.625 20.65625 21.640625 20.65625 21.675781 C 20.566406 21.710938 20.53125 21.773438 20.558594 21.851562 C 20.617188 21.957031 20.660156 21.945312 20.679688 21.824219 C 20.773438 21.929688 20.832031 22.039062 20.851562 22.148438 C 20.820312 22.1875 20.796875 22.226562 20.777344 22.273438 C 20.746094 22.140625 20.714844 22.140625 20.679688 22.273438 C 20.660156 22.152344 20.617188 22.144531 20.558594 22.25 C 20.714844 22.390625 20.804688 22.566406 20.828125 22.773438 C 20.84375 22.726562 20.859375 22.675781 20.875 22.625 C 20.90625 22.824219 20.941406 22.824219 20.972656 22.625 C 20.992188 22.777344 21.023438 22.792969 21.070312 22.675781 C 21.128906 22.761719 21.152344 22.851562 21.144531 22.949219 C 21.105469 23.085938 21.0625 23.09375 21.019531 22.976562 C 20.992188 23.109375 20.957031 23.109375 20.925781 22.976562 C 20.890625 23.109375 20.859375 23.109375 20.828125 22.976562 C 20.792969 23.109375 20.761719 23.109375 20.730469 22.976562 C 20.695312 23.109375 20.664062 23.109375 20.632812 22.976562 C 20.597656 23.109375 20.566406 23.109375 20.53125 22.976562 C 20.503906 23.109375 20.46875 23.109375 20.433594 22.976562 C 20.375 23.046875 20.375 23.128906 20.433594 23.226562 C 20.453125 23.191406 20.46875 23.160156 20.484375 23.125 C 20.515625 23.257812 20.546875 23.257812 20.582031 23.125 C 20.617188 23.257812 20.648438 23.257812 20.679688 23.125 C 20.714844 23.257812 20.746094 23.257812 20.777344 23.125 C 20.808594 23.257812 20.84375 23.257812 20.875 23.125 C 20.90625 23.257812 20.941406 23.257812 20.972656 23.125 C 21.003906 23.257812 21.039062 23.257812 21.070312 23.125 C 21.105469 23.257812 21.136719 23.257812 21.167969 23.125 C 21.222656 23.246094 21.246094 23.230469 21.242188 23.074219 C 21.289062 23.128906 21.304688 23.195312 21.289062 23.273438 C 21.230469 23.398438 21.175781 23.398438 21.117188 23.273438 C 21.089844 23.410156 21.054688 23.410156 21.019531 23.273438 C 20.992188 23.410156 20.957031 23.410156 20.925781 23.273438 C 20.890625 23.410156 20.859375 23.410156 20.828125 23.273438 C 20.792969 23.410156 20.761719 23.410156 20.730469 23.273438 C 20.695312 23.410156 20.664062 23.410156 20.632812 23.273438 C 20.597656 23.410156 20.566406 23.410156 20.53125 23.273438 C 20.503906 23.410156 20.46875 23.410156 20.433594 23.273438 C 20.402344 23.410156 20.371094 23.410156 20.335938 23.273438 C 20.269531 23.328125 20.21875 23.394531 20.191406 23.476562 C 20.160156 23.339844 20.125 23.339844 20.09375 23.476562 C 20.058594 23.339844 20.03125 23.339844 19.996094 23.476562 C 19.960938 23.339844 19.929688 23.339844 19.898438 23.476562 C 19.863281 23.339844 19.832031 23.339844 19.800781 23.476562 C 19.769531 23.339844 19.734375 23.339844 19.703125 23.476562 C 19.671875 23.339844 19.636719 23.339844 19.601562 23.476562 C 19.570312 23.339844 19.539062 23.339844 19.507812 23.476562 C 19.222656 23.253906 18.9375 22.960938 18.652344 22.601562 C 18.699219 22.457031 18.753906 22.445312 18.824219 22.574219 C 18.855469 22.441406 18.886719 22.441406 18.917969 22.574219 C 18.953125 22.441406 18.984375 22.441406 19.015625 22.574219 C 19.050781 22.441406 19.085938 22.441406 19.113281 22.574219 C 19.175781 22.476562 19.175781 22.398438 19.113281 22.324219 C 19.101562 22.359375 19.085938 22.390625 19.066406 22.425781 C 18.753906 22.082031 18.453125 21.730469 18.164062 21.375 C 18.195312 21.308594 18.242188 21.257812 18.308594 21.226562 C 18.375 21.289062 18.414062 21.375 18.429688 21.476562 C 18.851562 21.902344 19.210938 22.269531 19.507812 22.574219 C 19.539062 22.375 19.570312 22.375 19.601562 22.574219 C 19.75 22.660156 19.863281 22.773438 19.945312 22.925781 C 19.980469 22.726562 20.011719 22.726562 20.046875 22.925781 C 20.074219 22.726562 20.109375 22.726562 20.144531 22.925781 C 20.171875 22.726562 20.207031 22.726562 20.242188 22.925781 C 20.273438 22.726562 20.304688 22.726562 20.335938 22.925781 C 20.371094 22.726562 20.402344 22.726562 20.433594 22.925781 C 20.46875 22.726562 20.503906 22.726562 20.53125 22.925781 C 20.566406 22.726562 20.597656 22.726562 20.632812 22.925781 C 20.664062 22.808594 20.664062 22.691406 20.632812 22.574219 C 20.585938 22.757812 20.554688 22.742188 20.53125 22.523438 C 20.503906 22.789062 20.46875 22.789062 20.433594 22.523438 C 20.371094 22.40625 20.320312 22.40625 20.289062 22.523438 C 20.242188 22.441406 20.191406 22.359375 20.144531 22.273438 C 20.125 22.308594 20.109375 22.339844 20.09375 22.375 C 20.058594 22.257812 20.011719 22.257812 19.945312 22.375 C 19.914062 22.574219 19.882812 22.574219 19.847656 22.375 C 19.816406 22.574219 19.785156 22.574219 19.75 22.375 C 19.324219 21.960938 18.925781 21.527344 18.554688 21.074219 C 18.59375 21.03125 18.640625 20.996094 18.699219 20.976562 C 18.75 21.035156 18.789062 21.101562 18.824219 21.175781 C 18.839844 21.140625 18.855469 21.109375 18.871094 21.074219 C 18.902344 21.210938 18.9375 21.210938 18.96875 21.074219 C 19.101562 21.3125 19.28125 21.460938 19.507812 21.523438 C 19.539062 21.492188 19.539062 21.460938 19.507812 21.425781 C 19.351562 21.28125 19.210938 21.121094 19.089844 20.949219 C 19.15625 20.914062 19.222656 20.914062 19.285156 20.949219 C 19.351562 20.984375 19.351562 21.015625 19.285156 21.050781 C 19.535156 21.304688 19.722656 21.492188 19.847656 21.625 C 19.882812 21.425781 19.914062 21.425781 19.945312 21.625 C 19.980469 21.425781 20.011719 21.425781 20.046875 21.625 C 20.140625 21.464844 20.101562 21.339844 19.921875 21.25 C 19.964844 21.214844 20 21.171875 20.019531 21.125 Z M 20.019531 21.125 "/>
<path style=" stroke:none;fill-rule:evenodd;fill:rgb(28.627451%,71.372549%,16.862745%);fill-opacity:1;" d="M 4.617188 22.625 C 4.617188 23.171875 4.691406 23.722656 4.839844 24.273438 C 5.550781 26.253906 6.917969 27.335938 8.945312 27.523438 C 10.632812 27.5 11.953125 26.734375 12.90625 25.226562 C 13.113281 25.664062 13.332031 26.101562 13.566406 26.523438 C 12.777344 28.140625 11.515625 29.121094 9.777344 29.476562 C 7.527344 29.507812 5.929688 28.472656 4.988281 26.375 C 4.476562 25.128906 4.355469 23.878906 4.617188 22.625 Z M 4.617188 22.625 "/>
<path style=" stroke:none;fill-rule:evenodd;fill:rgb(12.941176%,21.960784%,8.235294%);fill-opacity:1;" d="M 23.832031 21.324219 C 23.867188 21.402344 23.890625 21.488281 23.90625 21.574219 C 24.113281 21.785156 24.3125 21.992188 24.515625 22.199219 C 24.570312 22.226562 24.617188 22.214844 24.664062 22.175781 C 24.714844 22.300781 24.757812 22.300781 24.785156 22.175781 C 24.820312 22.308594 24.851562 22.308594 24.886719 22.175781 C 25.109375 22.335938 25.339844 22.570312 25.570312 22.875 C 25.585938 22.839844 25.601562 22.808594 25.617188 22.773438 C 25.84375 22.9375 26.074219 23.171875 26.304688 23.476562 C 26.320312 23.441406 26.332031 23.410156 26.351562 23.375 C 26.417969 23.484375 26.492188 23.585938 26.570312 23.675781 C 26.527344 23.878906 26.445312 24.0625 26.328125 24.226562 C 26.273438 24.164062 26.234375 24.179688 26.203125 24.273438 C 26.171875 24.140625 26.140625 24.140625 26.105469 24.273438 C 26.074219 24.140625 26.042969 24.140625 26.007812 24.273438 C 25.96875 24.128906 25.917969 24.109375 25.859375 24.226562 C 25.832031 24.144531 25.785156 24.078125 25.71875 24.023438 C 25.683594 24.160156 25.648438 24.160156 25.617188 24.023438 C 25.601562 24.058594 25.585938 24.089844 25.570312 24.125 C 25.539062 24.042969 25.488281 23.976562 25.421875 23.925781 C 25.40625 23.960938 25.386719 23.992188 25.375 24.023438 C 25.34375 23.945312 25.292969 23.878906 25.226562 23.824219 C 25.195312 23.960938 25.160156 23.960938 25.128906 23.824219 C 25.097656 23.960938 25.0625 23.960938 25.03125 23.824219 C 25 23.960938 24.964844 23.960938 24.933594 23.824219 C 24.898438 23.960938 24.871094 23.960938 24.835938 23.824219 C 24.800781 23.960938 24.773438 23.960938 24.738281 23.824219 C 24.722656 23.859375 24.703125 23.890625 24.6875 23.925781 C 24.65625 23.84375 24.609375 23.777344 24.542969 23.726562 C 24.511719 23.859375 24.476562 23.859375 24.441406 23.726562 C 24.414062 23.859375 24.378906 23.859375 24.347656 23.726562 C 24.3125 23.859375 24.28125 23.859375 24.25 23.726562 C 24.214844 23.859375 24.183594 23.859375 24.152344 23.726562 C 24.136719 23.757812 24.117188 23.789062 24.101562 23.824219 C 24.023438 23.695312 23.925781 23.578125 23.808594 23.476562 C 23.777344 23.410156 23.777344 23.339844 23.808594 23.273438 C 23.839844 23.410156 23.875 23.410156 23.90625 23.273438 C 23.953125 23.394531 23.984375 23.378906 24.003906 23.226562 C 24.039062 23.425781 24.070312 23.425781 24.101562 23.226562 C 24.136719 23.425781 24.167969 23.425781 24.199219 23.226562 C 24.210938 23.304688 24.246094 23.367188 24.296875 23.425781 C 24.300781 23.320312 24.34375 23.234375 24.417969 23.175781 C 24.472656 23.367188 24.515625 23.367188 24.542969 23.175781 C 24.574219 23.375 24.609375 23.375 24.640625 23.175781 C 24.65625 23.328125 24.691406 23.34375 24.738281 23.226562 C 24.773438 23.359375 24.800781 23.359375 24.835938 23.226562 C 24.871094 23.359375 24.898438 23.359375 24.933594 23.226562 C 24.964844 23.359375 25 23.359375 25.03125 23.226562 C 25.0625 23.359375 25.097656 23.359375 25.128906 23.226562 C 25.160156 23.359375 25.195312 23.359375 25.226562 23.226562 C 25.34375 23.492188 25.414062 23.488281 25.445312 23.199219 C 25.148438 22.960938 24.84375 22.652344 24.542969 22.273438 C 24.527344 22.308594 24.511719 22.339844 24.492188 22.375 C 24.230469 22.066406 23.960938 21.765625 23.6875 21.476562 C 23.71875 21.410156 23.769531 21.359375 23.832031 21.324219 Z M 23.832031 21.324219 "/>
<path style=" stroke:none;fill-rule:evenodd;fill:rgb(12.54902%,19.607843%,8.627451%);fill-opacity:1;" d="M 23.6875 21.476562 C 23.960938 21.765625 24.230469 22.066406 24.492188 22.375 C 24.511719 22.339844 24.527344 22.308594 24.542969 22.273438 C 24.84375 22.652344 25.148438 22.960938 25.445312 23.199219 C 25.414062 23.488281 25.34375 23.492188 25.226562 23.226562 C 25.195312 23.359375 25.160156 23.359375 25.128906 23.226562 C 25.097656 23.359375 25.0625 23.359375 25.03125 23.226562 C 25 23.359375 24.964844 23.359375 24.933594 23.226562 C 24.898438 23.359375 24.871094 23.359375 24.835938 23.226562 C 24.800781 23.359375 24.773438 23.359375 24.738281 23.226562 C 24.691406 23.34375 24.65625 23.328125 24.640625 23.175781 C 24.609375 23.375 24.574219 23.375 24.542969 23.175781 C 24.515625 23.367188 24.472656 23.367188 24.417969 23.175781 C 24.34375 23.234375 24.300781 23.320312 24.296875 23.425781 C 24.246094 23.367188 24.210938 23.304688 24.199219 23.226562 C 24.167969 23.425781 24.136719 23.425781 24.101562 23.226562 C 24.070312 23.425781 24.039062 23.425781 24.003906 23.226562 C 23.984375 23.378906 23.953125 23.394531 23.90625 23.273438 C 23.875 23.410156 23.839844 23.410156 23.808594 23.273438 C 23.777344 23.339844 23.777344 23.410156 23.808594 23.476562 C 23.925781 23.578125 24.023438 23.695312 24.101562 23.824219 C 24.117188 23.789062 24.136719 23.757812 24.152344 23.726562 C 24.183594 23.859375 24.214844 23.859375 24.25 23.726562 C 24.28125 23.859375 24.3125 23.859375 24.347656 23.726562 C 24.378906 23.859375 24.414062 23.859375 24.441406 23.726562 C 24.476562 23.859375 24.511719 23.859375 24.542969 23.726562 C 24.609375 23.777344 24.65625 23.84375 24.6875 23.925781 C 24.703125 23.890625 24.722656 23.859375 24.738281 23.824219 C 24.773438 23.960938 24.800781 23.960938 24.835938 23.824219 C 24.871094 23.960938 24.898438 23.960938 24.933594 23.824219 C 24.964844 23.960938 25 23.960938 25.03125 23.824219 C 25.0625 23.960938 25.097656 23.960938 25.128906 23.824219 C 25.160156 23.960938 25.195312 23.960938 25.226562 23.824219 C 25.292969 23.878906 25.34375 23.945312 25.375 24.023438 C 25.386719 23.992188 25.40625 23.960938 25.421875 23.925781 C 25.488281 23.976562 25.539062 24.042969 25.570312 24.125 C 25.585938 24.089844 25.601562 24.058594 25.617188 24.023438 C 25.648438 24.160156 25.683594 24.160156 25.71875 24.023438 C 25.785156 24.078125 25.832031 24.144531 25.859375 24.226562 C 25.917969 24.109375 25.96875 24.128906 26.007812 24.273438 C 26.042969 24.140625 26.074219 24.140625 26.105469 24.273438 C 26.140625 24.140625 26.171875 24.140625 26.203125 24.273438 C 26.234375 24.179688 26.273438 24.164062 26.328125 24.226562 C 26.101562 24.621094 25.773438 24.890625 25.347656 25.023438 C 25.289062 24.996094 25.234375 24.980469 25.175781 24.976562 C 25.097656 25.023438 25.015625 25.074219 24.933594 25.125 C 24.738281 25.125 24.542969 25.125 24.347656 25.125 C 24.300781 25.085938 24.269531 25.035156 24.25 24.976562 C 24.214844 25.109375 24.183594 25.109375 24.152344 24.976562 C 24.117188 25.109375 24.085938 25.109375 24.054688 24.976562 C 24 25.011719 23.976562 25.0625 23.980469 25.125 C 23.84375 25.113281 23.742188 25.046875 23.664062 24.925781 C 23.109375 23.773438 23.117188 22.621094 23.6875 21.476562 Z M 23.6875 21.476562 "/>
<path style=" stroke:none;fill-rule:evenodd;fill:rgb(11.372549%,16.470588%,8.627451%);fill-opacity:1;" d="M 17.039062 23.226562 C 17.160156 23.429688 17.316406 23.609375 17.503906 23.773438 C 17.535156 23.976562 17.566406 23.976562 17.597656 23.773438 C 17.632812 23.976562 17.667969 23.976562 17.695312 23.773438 C 17.714844 23.824219 17.730469 23.875 17.746094 23.925781 C 17.757812 23.820312 17.808594 23.734375 17.894531 23.675781 C 17.925781 23.808594 17.957031 23.808594 17.992188 23.675781 C 18.023438 23.808594 18.054688 23.808594 18.089844 23.675781 C 18.121094 23.808594 18.15625 23.808594 18.1875 23.675781 C 18.21875 23.808594 18.253906 23.808594 18.28125 23.675781 C 18.324219 23.765625 18.378906 23.839844 18.453125 23.898438 C 18.421875 23.953125 18.398438 24.011719 18.382812 24.074219 C 18.351562 23.875 18.316406 23.875 18.28125 24.074219 C 18.253906 23.941406 18.21875 23.941406 18.1875 24.074219 C 18.15625 23.941406 18.121094 23.941406 18.089844 24.074219 C 18.054688 23.941406 18.023438 23.941406 17.992188 24.074219 C 17.957031 23.941406 17.925781 23.941406 17.894531 24.074219 C 17.859375 23.941406 17.828125 23.941406 17.796875 24.074219 C 17.726562 23.945312 17.667969 23.957031 17.625 24.101562 C 17.882812 24.414062 18.160156 24.714844 18.453125 25 C 18.367188 25.136719 18.296875 25.113281 18.234375 24.925781 C 18.203125 25.058594 18.167969 25.058594 18.140625 24.925781 C 18.113281 25.046875 18.074219 25.054688 18.015625 24.949219 C 18.0625 24.914062 18.070312 24.871094 18.039062 24.824219 C 17.753906 24.550781 17.523438 24.300781 17.355469 24.074219 C 17.324219 24.210938 17.292969 24.210938 17.257812 24.074219 C 17.222656 24.210938 17.195312 24.210938 17.160156 24.074219 C 17.125 24.210938 17.09375 24.210938 17.0625 24.074219 C 17.011719 24.113281 16.988281 24.164062 16.988281 24.226562 C 16.921875 23.894531 16.9375 23.558594 17.039062 23.226562 Z M 17.039062 23.226562 "/>
<path style=" stroke:none;fill-rule:evenodd;fill:rgb(12.941176%,22.352941%,8.235294%);fill-opacity:1;" d="M 17.429688 25.175781 C 17.164062 24.917969 17.019531 24.601562 16.988281 24.226562 C 16.988281 24.164062 17.011719 24.113281 17.0625 24.074219 C 17.09375 24.210938 17.125 24.210938 17.160156 24.074219 C 17.195312 24.210938 17.222656 24.210938 17.257812 24.074219 C 17.292969 24.210938 17.324219 24.210938 17.355469 24.074219 C 17.523438 24.300781 17.753906 24.550781 18.039062 24.824219 C 18.070312 24.871094 18.0625 24.914062 18.015625 24.949219 C 18.074219 25.054688 18.113281 25.046875 18.140625 24.925781 C 18.167969 25.058594 18.203125 25.058594 18.234375 24.925781 C 18.296875 25.113281 18.367188 25.136719 18.453125 25 C 18.160156 24.714844 17.882812 24.414062 17.625 24.101562 C 17.667969 23.957031 17.726562 23.945312 17.796875 24.074219 C 17.828125 23.941406 17.859375 23.941406 17.894531 24.074219 C 17.925781 23.941406 17.957031 23.941406 17.992188 24.074219 C 18.023438 23.941406 18.054688 23.941406 18.089844 24.074219 C 18.121094 23.941406 18.15625 23.941406 18.1875 24.074219 C 18.21875 23.941406 18.253906 23.941406 18.28125 24.074219 C 18.316406 23.875 18.351562 23.875 18.382812 24.074219 C 18.398438 24.011719 18.421875 23.953125 18.453125 23.898438 C 18.378906 23.839844 18.324219 23.765625 18.28125 23.675781 C 18.253906 23.808594 18.21875 23.808594 18.1875 23.675781 C 18.15625 23.808594 18.121094 23.808594 18.089844 23.675781 C 18.054688 23.808594 18.023438 23.808594 17.992188 23.675781 C 17.957031 23.808594 17.925781 23.808594 17.894531 23.675781 C 17.808594 23.734375 17.757812 23.820312 17.746094 23.925781 C 17.730469 23.875 17.714844 23.824219 17.695312 23.773438 C 17.667969 23.976562 17.632812 23.976562 17.597656 23.773438 C 17.566406 23.976562 17.535156 23.976562 17.503906 23.773438 C 17.316406 23.609375 17.160156 23.429688 17.039062 23.226562 C 17.066406 23.132812 17.09375 23.050781 17.136719 22.976562 C 17.183594 22.972656 17.222656 22.988281 17.257812 23.023438 C 17.292969 22.890625 17.324219 22.890625 17.355469 23.023438 C 17.386719 22.890625 17.421875 22.890625 17.453125 23.023438 C 17.46875 22.992188 17.484375 22.960938 17.503906 22.925781 C 17.550781 23.007812 17.597656 23.089844 17.648438 23.175781 C 17.679688 22.976562 17.714844 22.976562 17.746094 23.175781 C 17.78125 22.976562 17.8125 22.976562 17.84375 23.175781 C 17.878906 22.976562 17.910156 22.976562 17.941406 23.175781 C 17.976562 22.976562 18.007812 22.976562 18.039062 23.175781 C 18.238281 23.398438 18.417969 23.566406 18.578125 23.675781 C 18.597656 23.628906 18.621094 23.585938 18.652344 23.550781 C 18.402344 23.316406 18.175781 23.066406 17.96875 22.800781 C 18.011719 22.65625 18.070312 22.648438 18.140625 22.773438 C 18.167969 22.640625 18.203125 22.640625 18.234375 22.773438 C 18.269531 22.640625 18.300781 22.640625 18.332031 22.773438 C 18.511719 22.960938 18.730469 23.183594 18.992188 23.449219 C 18.953125 23.585938 18.910156 23.59375 18.871094 23.476562 C 18.792969 23.53125 18.792969 23.601562 18.871094 23.675781 C 19.050781 23.894531 19.226562 24.027344 19.410156 24.074219 C 19.429688 23.882812 19.492188 23.851562 19.601562 23.976562 C 19.636719 23.839844 19.671875 23.839844 19.703125 23.976562 C 19.734375 23.839844 19.769531 23.839844 19.800781 23.976562 C 19.820312 23.785156 19.886719 23.75 19.996094 23.875 C 20.03125 23.742188 20.058594 23.742188 20.09375 23.875 C 20.125 23.742188 20.160156 23.742188 20.191406 23.875 C 20.222656 23.742188 20.257812 23.742188 20.289062 23.875 C 20.320312 23.742188 20.355469 23.742188 20.386719 23.875 C 20.417969 23.742188 20.453125 23.742188 20.484375 23.875 C 20.503906 23.683594 20.570312 23.648438 20.679688 23.773438 C 20.714844 23.640625 20.746094 23.640625 20.777344 23.773438 C 20.808594 23.640625 20.84375 23.640625 20.875 23.773438 C 20.90625 23.640625 20.941406 23.640625 20.972656 23.773438 C 21.003906 23.640625 21.039062 23.640625 21.070312 23.773438 C 21.105469 23.640625 21.136719 23.640625 21.167969 23.773438 C 21.207031 23.65625 21.25 23.664062 21.289062 23.800781 C 21.175781 23.867188 21.175781 23.914062 21.289062 23.949219 C 21.257812 23.964844 21.226562 23.984375 21.191406 24 C 21.207031 24.183594 21.226562 24.367188 21.242188 24.550781 C 21.1875 24.632812 21.148438 24.722656 21.117188 24.824219 C 21.089844 24.691406 21.054688 24.691406 21.019531 24.824219 C 20.992188 24.691406 20.957031 24.691406 20.925781 24.824219 C 20.894531 24.742188 20.847656 24.679688 20.777344 24.625 C 20.746094 24.757812 20.714844 24.757812 20.679688 24.625 C 20.648438 24.757812 20.617188 24.757812 20.582031 24.625 C 20.566406 24.660156 20.546875 24.691406 20.53125 24.726562 C 20.503906 24.644531 20.453125 24.578125 20.386719 24.523438 C 20.355469 24.660156 20.320312 24.660156 20.289062 24.523438 C 20.222656 24.660156 20.160156 24.660156 20.09375 24.523438 C 20.074219 24.558594 20.058594 24.589844 20.046875 24.625 C 20.015625 24.542969 19.964844 24.476562 19.898438 24.425781 C 19.882812 24.460938 19.863281 24.492188 19.847656 24.523438 C 19.816406 24.445312 19.769531 24.378906 19.703125 24.324219 C 19.671875 24.460938 19.636719 24.460938 19.601562 24.324219 C 19.585938 24.359375 19.570312 24.390625 19.558594 24.425781 C 19.527344 24.34375 19.476562 24.277344 19.410156 24.226562 C 19.375 24.359375 19.34375 24.359375 19.3125 24.226562 C 19.296875 24.257812 19.277344 24.289062 19.261719 24.324219 C 19.214844 24.242188 19.164062 24.160156 19.113281 24.074219 C 19.101562 24.109375 19.085938 24.140625 19.066406 24.175781 C 18.96875 24.128906 18.871094 24.046875 18.773438 23.925781 C 18.738281 24.019531 18.761719 24.09375 18.847656 24.148438 C 18.8125 24.203125 18.789062 24.261719 18.773438 24.324219 C 18.742188 24.125 18.707031 24.125 18.675781 24.324219 C 18.640625 24.125 18.613281 24.125 18.578125 24.324219 C 18.542969 24.125 18.511719 24.125 18.480469 24.324219 C 18.464844 24.273438 18.445312 24.226562 18.429688 24.175781 C 18.367188 24.167969 18.3125 24.195312 18.257812 24.25 C 18.847656 24.851562 19.433594 25.449219 20.019531 26.050781 C 19.976562 26.1875 19.9375 26.195312 19.898438 26.074219 C 19.863281 26.109375 19.832031 26.140625 19.800781 26.175781 C 19.457031 25.824219 19.113281 25.476562 18.773438 25.125 C 18.757812 25.175781 18.742188 25.226562 18.726562 25.273438 C 18.710938 25.167969 18.664062 25.085938 18.578125 25.023438 C 18.527344 25.109375 18.480469 25.191406 18.429688 25.273438 C 18.398438 25.140625 18.367188 25.140625 18.332031 25.273438 C 18.292969 25.128906 18.242188 25.109375 18.1875 25.226562 C 18.15625 25.089844 18.121094 25.089844 18.089844 25.226562 C 18.054688 25.089844 18.023438 25.089844 17.992188 25.226562 C 17.957031 25.089844 17.925781 25.089844 17.894531 25.226562 C 17.859375 25.089844 17.828125 25.089844 17.796875 25.226562 C 17.761719 25.089844 17.730469 25.089844 17.695312 25.226562 C 17.667969 25.089844 17.632812 25.089844 17.597656 25.226562 C 17.582031 25.191406 17.566406 25.160156 17.550781 25.125 C 17.503906 25.144531 17.464844 25.160156 17.429688 25.175781 Z M 17.429688 25.175781 "/>
<path style=" stroke:none;fill-rule:evenodd;fill:rgb(12.156863%,18.823529%,8.235294%);fill-opacity:1;" d="M 18.164062 21.375 C 18.453125 21.730469 18.753906 22.082031 19.066406 22.425781 C 19.085938 22.390625 19.101562 22.359375 19.113281 22.324219 C 19.175781 22.398438 19.175781 22.476562 19.113281 22.574219 C 19.085938 22.441406 19.050781 22.441406 19.015625 22.574219 C 18.984375 22.441406 18.953125 22.441406 18.917969 22.574219 C 18.886719 22.441406 18.855469 22.441406 18.824219 22.574219 C 18.753906 22.445312 18.699219 22.457031 18.652344 22.601562 C 18.9375 22.960938 19.222656 23.253906 19.507812 23.476562 C 19.539062 23.339844 19.570312 23.339844 19.601562 23.476562 C 19.636719 23.339844 19.671875 23.339844 19.703125 23.476562 C 19.734375 23.339844 19.769531 23.339844 19.800781 23.476562 C 19.832031 23.339844 19.863281 23.339844 19.898438 23.476562 C 19.929688 23.339844 19.960938 23.339844 19.996094 23.476562 C 20.03125 23.339844 20.058594 23.339844 20.09375 23.476562 C 20.125 23.339844 20.160156 23.339844 20.191406 23.476562 C 20.21875 23.394531 20.269531 23.328125 20.335938 23.273438 C 20.371094 23.410156 20.402344 23.410156 20.433594 23.273438 C 20.46875 23.410156 20.503906 23.410156 20.53125 23.273438 C 20.566406 23.410156 20.597656 23.410156 20.632812 23.273438 C 20.664062 23.410156 20.695312 23.410156 20.730469 23.273438 C 20.761719 23.410156 20.792969 23.410156 20.828125 23.273438 C 20.859375 23.410156 20.890625 23.410156 20.925781 23.273438 C 20.957031 23.410156 20.992188 23.410156 21.019531 23.273438 C 21.054688 23.410156 21.089844 23.410156 21.117188 23.273438 C 21.175781 23.398438 21.230469 23.398438 21.289062 23.273438 C 21.375 24.167969 21.261719 25.035156 20.949219 25.875 C 20.875 25.945312 20.792969 26 20.703125 26.050781 C 19.78125 26.34375 18.898438 26.242188 18.066406 25.75 C 17.8125 25.601562 17.601562 25.410156 17.429688 25.175781 C 17.464844 25.160156 17.503906 25.144531 17.550781 25.125 C 17.566406 25.160156 17.582031 25.191406 17.597656 25.226562 C 17.632812 25.089844 17.667969 25.089844 17.695312 25.226562 C 17.730469 25.089844 17.761719 25.089844 17.796875 25.226562 C 17.828125 25.089844 17.859375 25.089844 17.894531 25.226562 C 17.925781 25.089844 17.957031 25.089844 17.992188 25.226562 C 18.023438 25.089844 18.054688 25.089844 18.089844 25.226562 C 18.121094 25.089844 18.15625 25.089844 18.1875 25.226562 C 18.242188 25.109375 18.292969 25.128906 18.332031 25.273438 C 18.367188 25.140625 18.398438 25.140625 18.429688 25.273438 C 18.480469 25.191406 18.527344 25.109375 18.578125 25.023438 C 18.664062 25.085938 18.710938 25.167969 18.726562 25.273438 C 18.742188 25.226562 18.757812 25.175781 18.773438 25.125 C 19.113281 25.476562 19.457031 25.824219 19.800781 26.175781 C 19.832031 26.140625 19.863281 26.109375 19.898438 26.074219 C 19.9375 26.195312 19.976562 26.1875 20.019531 26.050781 C 19.433594 25.449219 18.847656 24.851562 18.257812 24.25 C 18.3125 24.195312 18.367188 24.167969 18.429688 24.175781 C 18.445312 24.226562 18.464844 24.273438 18.480469 24.324219 C 18.511719 24.125 18.542969 24.125 18.578125 24.324219 C 18.613281 24.125 18.640625 24.125 18.675781 24.324219 C 18.707031 24.125 18.742188 24.125 18.773438 24.324219 C 18.789062 24.261719 18.8125 24.203125 18.847656 24.148438 C 18.761719 24.09375 18.738281 24.019531 18.773438 23.925781 C 18.871094 24.046875 18.96875 24.128906 19.066406 24.175781 C 19.085938 24.140625 19.101562 24.109375 19.113281 24.074219 C 19.164062 24.160156 19.214844 24.242188 19.261719 24.324219 C 19.277344 24.289062 19.296875 24.257812 19.3125 24.226562 C 19.34375 24.359375 19.375 24.359375 19.410156 24.226562 C 19.476562 24.277344 19.527344 24.34375 19.558594 24.425781 C 19.570312 24.390625 19.585938 24.359375 19.601562 24.324219 C 19.636719 24.460938 19.671875 24.460938 19.703125 24.324219 C 19.769531 24.378906 19.816406 24.445312 19.847656 24.523438 C 19.863281 24.492188 19.882812 24.460938 19.898438 24.425781 C 19.964844 24.476562 20.015625 24.542969 20.046875 24.625 C 20.058594 24.589844 20.074219 24.558594 20.09375 24.523438 C 20.160156 24.660156 20.222656 24.660156 20.289062 24.523438 C 20.320312 24.660156 20.355469 24.660156 20.386719 24.523438 C 20.453125 24.578125 20.503906 24.644531 20.53125 24.726562 C 20.546875 24.691406 20.566406 24.660156 20.582031 24.625 C 20.617188 24.757812 20.648438 24.757812 20.679688 24.625 C 20.714844 24.757812 20.746094 24.757812 20.777344 24.625 C 20.847656 24.679688 20.894531 24.742188 20.925781 24.824219 C 20.957031 24.691406 20.992188 24.691406 21.019531 24.824219 C 21.054688 24.691406 21.089844 24.691406 21.117188 24.824219 C 21.148438 24.722656 21.1875 24.632812 21.242188 24.550781 C 21.226562 24.367188 21.207031 24.183594 21.191406 24 C 21.226562 23.984375 21.257812 23.964844 21.289062 23.949219 C 21.175781 23.914062 21.175781 23.867188 21.289062 23.800781 C 21.25 23.664062 21.207031 23.65625 21.167969 23.773438 C 21.136719 23.640625 21.105469 23.640625 21.070312 23.773438 C 21.039062 23.640625 21.003906 23.640625 20.972656 23.773438 C 20.941406 23.640625 20.90625 23.640625 20.875 23.773438 C 20.84375 23.640625 20.808594 23.640625 20.777344 23.773438 C 20.746094 23.640625 20.714844 23.640625 20.679688 23.773438 C 20.570312 23.648438 20.503906 23.683594 20.484375 23.875 C 20.453125 23.742188 20.417969 23.742188 20.386719 23.875 C 20.355469 23.742188 20.320312 23.742188 20.289062 23.875 C 20.257812 23.742188 20.222656 23.742188 20.191406 23.875 C 20.160156 23.742188 20.125 23.742188 20.09375 23.875 C 20.058594 23.742188 20.03125 23.742188 19.996094 23.875 C 19.886719 23.75 19.820312 23.785156 19.800781 23.976562 C 19.769531 23.839844 19.734375 23.839844 19.703125 23.976562 C 19.671875 23.839844 19.636719 23.839844 19.601562 23.976562 C 19.492188 23.851562 19.429688 23.882812 19.410156 24.074219 C 19.226562 24.027344 19.050781 23.894531 18.871094 23.675781 C 18.792969 23.601562 18.792969 23.53125 18.871094 23.476562 C 18.910156 23.59375 18.953125 23.585938 18.992188 23.449219 C 18.730469 23.183594 18.511719 22.960938 18.332031 22.773438 C 18.300781 22.640625 18.269531 22.640625 18.234375 22.773438 C 18.203125 22.640625 18.167969 22.640625 18.140625 22.773438 C 18.070312 22.648438 18.011719 22.65625 17.96875 22.800781 C 18.175781 23.066406 18.402344 23.316406 18.652344 23.550781 C 18.621094 23.585938 18.597656 23.628906 18.578125 23.675781 C 18.417969 23.566406 18.238281 23.398438 18.039062 23.175781 C 18.007812 22.976562 17.976562 22.976562 17.941406 23.175781 C 17.910156 22.976562 17.878906 22.976562 17.84375 23.175781 C 17.8125 22.976562 17.78125 22.976562 17.746094 23.175781 C 17.714844 22.976562 17.679688 22.976562 17.648438 23.175781 C 17.597656 23.089844 17.550781 23.007812 17.503906 22.925781 C 17.484375 22.960938 17.46875 22.992188 17.453125 23.023438 C 17.421875 22.890625 17.386719 22.890625 17.355469 23.023438 C 17.324219 22.890625 17.292969 22.890625 17.257812 23.023438 C 17.222656 22.988281 17.183594 22.972656 17.136719 22.976562 C 17.332031 22.339844 17.671875 21.804688 18.164062 21.375 Z M 18.164062 21.375 "/>
<path style=" stroke:none;fill-rule:evenodd;fill:rgb(10.588235%,12.156863%,8.627451%);fill-opacity:1;" d="M 25.347656 25.023438 C 25.046875 25.148438 24.730469 25.210938 24.398438 25.226562 C 24.246094 25.226562 24.109375 25.195312 23.980469 25.125 C 23.976562 25.0625 24 25.011719 24.054688 24.976562 C 24.085938 25.109375 24.117188 25.109375 24.152344 24.976562 C 24.183594 25.109375 24.214844 25.109375 24.25 24.976562 C 24.269531 25.035156 24.300781 25.085938 24.347656 25.125 C 24.542969 25.125 24.738281 25.125 24.933594 25.125 C 25.015625 25.074219 25.097656 25.023438 25.175781 24.976562 C 25.234375 24.980469 25.289062 24.996094 25.347656 25.023438 Z M 25.347656 25.023438 "/>
<path style=" stroke:none;fill-rule:evenodd;fill:rgb(30.588235%,73.333333%,18.431373%);fill-opacity:1;" d="M 16.695312 29.625 C 16.886719 29.691406 17.066406 29.78125 17.234375 29.898438 C 17.527344 30.617188 17.96875 31.238281 18.554688 31.75 C 20.089844 32.914062 21.769531 33.261719 23.589844 32.800781 C 25.207031 32.320312 26.265625 31.261719 26.765625 29.625 C 26.640625 33.195312 24.839844 34.898438 21.363281 34.726562 C 19.359375 34.507812 17.957031 33.445312 17.160156 31.523438 C 16.929688 30.910156 16.773438 30.277344 16.695312 29.625 Z M 16.695312 29.625 "/>
<path style=" stroke:none;fill-rule:evenodd;fill:rgb(64.313725%,91.764706%,0%);fill-opacity:1;" d="M 25.886719 30.175781 C 25.9375 30.210938 25.945312 30.261719 25.910156 30.324219 C 25.40625 31.242188 24.667969 31.867188 23.6875 32.199219 C 21.964844 32.742188 20.335938 32.429688 18.796875 31.25 C 18.519531 30.976562 18.273438 30.679688 18.066406 30.351562 C 19.113281 30.738281 20.179688 30.996094 21.265625 31.125 C 22.175781 31.160156 23.078125 31.070312 23.980469 30.851562 C 24.628906 30.636719 25.261719 30.414062 25.886719 30.175781 Z M 25.886719 30.175781 "/>
<path style=" stroke:none;fill-rule:evenodd;fill:rgb(94.117647%,94.117647%,94.117647%);fill-opacity:1;" d="M 37.277344 33.824219 C 37.375 34.019531 37.40625 34.234375 37.375 34.476562 C 37.617188 34.476562 37.863281 34.476562 38.109375 34.476562 C 38.109375 34.726562 38.109375 34.976562 38.109375 35.226562 C 38.351562 35.226562 38.597656 35.226562 38.84375 35.226562 C 38.84375 35.476562 38.84375 35.726562 38.84375 35.976562 C 39.085938 35.976562 39.332031 35.976562 39.574219 35.976562 C 39.574219 36.226562 39.574219 36.476562 39.574219 36.726562 C 39.820312 36.726562 40.066406 36.726562 40.308594 36.726562 C 40.308594 36.976562 40.308594 37.226562 40.308594 37.476562 C 40.554688 37.476562 40.796875 37.476562 41.042969 37.476562 C 41.042969 37.726562 41.042969 37.976562 41.042969 38.226562 C 41.285156 38.226562 41.53125 38.226562 41.773438 38.226562 C 41.773438 38.476562 41.773438 38.726562 41.773438 38.976562 C 41.53125 38.976562 41.285156 38.976562 41.042969 38.976562 C 41.042969 39.226562 41.042969 39.476562 41.042969 39.726562 C 40.796875 39.726562 40.554688 39.726562 40.308594 39.726562 C 40.308594 39.476562 40.308594 39.226562 40.308594 38.976562 C 40.066406 38.976562 39.820312 38.976562 39.574219 38.976562 C 39.574219 39.226562 39.574219 39.476562 39.574219 39.726562 C 39.332031 39.726562 39.085938 39.726562 38.84375 39.726562 C 38.84375 39.476562 38.84375 39.226562 38.84375 38.976562 C 38.597656 38.976562 38.351562 38.976562 38.109375 38.976562 C 38.109375 39.226562 38.109375 39.476562 38.109375 39.726562 C 37.863281 39.726562 37.617188 39.726562 37.375 39.726562 C 37.375 39.476562 37.375 39.226562 37.375 38.976562 C 37.132812 38.976562 36.886719 38.976562 36.644531 38.976562 C 36.644531 39.226562 36.644531 39.476562 36.644531 39.726562 C 36.398438 39.726562 36.152344 39.726562 35.910156 39.726562 C 35.910156 39.476562 35.910156 39.226562 35.910156 38.976562 C 35.664062 38.976562 35.417969 38.976562 35.175781 38.976562 C 35.175781 39.226562 35.175781 39.476562 35.175781 39.726562 C 34.929688 39.726562 34.6875 39.726562 34.441406 39.726562 C 34.441406 39.476562 34.441406 39.226562 34.441406 38.976562 C 34.195312 38.976562 33.953125 38.976562 33.710938 38.976562 C 33.710938 39.226562 33.710938 39.476562 33.710938 39.726562 C 33.464844 39.726562 33.222656 39.726562 32.976562 39.726562 C 32.976562 39.476562 32.976562 39.226562 32.976562 38.976562 C 32.730469 38.976562 32.488281 38.976562 32.242188 38.976562 C 32.242188 39.226562 32.242188 39.476562 32.242188 39.726562 C 31.996094 39.726562 31.753906 39.726562 31.507812 39.726562 C 31.507812 39.476562 31.507812 39.226562 31.507812 38.976562 C 31.265625 38.976562 31.019531 38.976562 30.773438 38.976562 C 30.773438 39.226562 30.773438 39.476562 30.773438 39.726562 C 30.53125 39.726562 30.285156 39.726562 30.042969 39.726562 C 30.042969 39.476562 30.042969 39.226562 30.042969 38.976562 C 29.796875 38.976562 29.554688 38.976562 29.308594 38.976562 C 29.308594 39.226562 29.308594 39.476562 29.308594 39.726562 C 29.066406 39.726562 28.820312 39.726562 28.574219 39.726562 C 28.574219 39.476562 28.574219 39.226562 28.574219 38.976562 C 28.332031 38.976562 28.085938 38.976562 27.84375 38.976562 C 27.84375 39.226562 27.84375 39.476562 27.84375 39.726562 C 27.597656 39.726562 27.351562 39.726562 27.109375 39.726562 C 27.109375 39.476562 27.109375 39.226562 27.109375 38.976562 C 26.941406 38.984375 26.777344 38.964844 26.617188 38.925781 C 27.449219 38.738281 28.28125 38.53125 29.113281 38.300781 C 32.152344 37.378906 34.875 35.886719 37.277344 33.824219 Z M 37.277344 33.824219 "/>
<path style=" stroke:none;fill-rule:evenodd;fill:rgb(96.470588%,96.470588%,96.470588%);fill-opacity:1;" d="M 38.207031 32.875 C 38.265625 32.890625 38.265625 32.914062 38.207031 32.949219 C 38.417969 32.976562 38.628906 32.984375 38.84375 32.976562 C 38.84375 33.226562 38.84375 33.476562 38.84375 33.726562 C 39.085938 33.726562 39.332031 33.726562 39.574219 33.726562 C 39.574219 33.976562 39.574219 34.226562 39.574219 34.476562 C 39.820312 34.476562 40.066406 34.476562 40.308594 34.476562 C 40.308594 34.726562 40.308594 34.976562 40.308594 35.226562 C 40.554688 35.226562 40.796875 35.226562 41.042969 35.226562 C 41.042969 35.476562 41.042969 35.726562 41.042969 35.976562 C 41.285156 35.976562 41.53125 35.976562 41.773438 35.976562 C 41.773438 36.226562 41.773438 36.476562 41.773438 36.726562 C 42.019531 36.726562 42.265625 36.726562 42.507812 36.726562 C 42.507812 36.976562 42.507812 37.226562 42.507812 37.476562 C 42.753906 37.476562 42.996094 37.476562 43.242188 37.476562 C 43.242188 37.726562 43.242188 37.976562 43.242188 38.226562 C 43.488281 38.226562 43.730469 38.226562 43.976562 38.226562 C 43.976562 38.808594 43.976562 39.390625 43.976562 39.976562 C 29.308594 39.976562 14.644531 39.976562 -0.0234375 39.976562 C -0.0234375 39.640625 -0.0234375 39.308594 -0.0234375 38.976562 C 0.222656 38.976562 0.464844 38.976562 0.710938 38.976562 C 0.710938 39.226562 0.710938 39.476562 0.710938 39.726562 C 0.953125 39.726562 1.195312 39.726562 1.441406 39.726562 C 1.441406 39.476562 1.441406 39.226562 1.441406 38.976562 C 1.6875 38.976562 1.929688 38.976562 2.175781 38.976562 C 2.175781 39.226562 2.175781 39.476562 2.175781 39.726562 C 2.417969 39.726562 2.664062 39.726562 2.910156 39.726562 C 2.910156 39.476562 2.910156 39.226562 2.910156 38.976562 C 3.152344 38.976562 3.398438 38.976562 3.644531 38.976562 C 3.644531 39.226562 3.644531 39.476562 3.644531 39.726562 C 3.886719 39.726562 4.132812 39.726562 4.375 39.726562 C 4.375 39.476562 4.375 39.226562 4.375 38.976562 C 4.617188 38.976562 4.863281 38.976562 5.109375 38.976562 C 5.109375 39.226562 5.109375 39.476562 5.109375 39.726562 C 5.351562 39.726562 5.597656 39.726562 5.84375 39.726562 C 5.84375 39.476562 5.84375 39.226562 5.84375 38.976562 C 6.085938 38.976562 6.332031 38.976562 6.574219 38.976562 C 6.574219 39.226562 6.574219 39.476562 6.574219 39.726562 C 6.820312 39.726562 7.066406 39.726562 7.308594 39.726562 C 7.308594 39.476562 7.308594 39.226562 7.308594 38.976562 C 7.554688 38.976562 7.796875 38.976562 8.042969 38.976562 C 8.042969 39.226562 8.042969 39.476562 8.042969 39.726562 C 8.285156 39.726562 8.53125 39.726562 8.773438 39.726562 C 8.773438 39.476562 8.773438 39.226562 8.773438 38.976562 C 9.019531 38.976562 9.265625 38.976562 9.507812 38.976562 C 9.507812 39.226562 9.507812 39.476562 9.507812 39.726562 C 9.753906 39.726562 9.996094 39.726562 10.242188 39.726562 C 10.242188 39.476562 10.242188 39.226562 10.242188 38.976562 C 10.488281 38.976562 10.730469 38.976562 10.976562 38.976562 C 10.976562 39.226562 10.976562 39.476562 10.976562 39.726562 C 11.222656 39.726562 11.464844 39.726562 11.710938 39.726562 C 11.710938 39.476562 11.710938 39.226562 11.710938 38.976562 C 11.953125 38.976562 12.195312 38.976562 12.441406 38.976562 C 12.441406 39.226562 12.441406 39.476562 12.441406 39.726562 C 12.6875 39.726562 12.929688 39.726562 13.175781 39.726562 C 13.175781 39.476562 13.175781 39.226562 13.175781 38.976562 C 13.417969 38.976562 13.664062 38.976562 13.910156 38.976562 C 13.910156 39.226562 13.910156 39.476562 13.910156 39.726562 C 14.152344 39.726562 14.398438 39.726562 14.644531 39.726562 C 14.644531 39.476562 14.644531 39.226562 14.644531 38.976562 C 14.886719 38.976562 15.132812 38.976562 15.375 38.976562 C 15.394531 38.847656 15.363281 38.738281 15.277344 38.648438 C 15.289062 38.632812 15.304688 38.621094 15.328125 38.625 C 19.070312 39.574219 22.832031 39.675781 26.617188 38.925781 C 26.777344 38.964844 26.941406 38.984375 27.109375 38.976562 C 27.109375 39.226562 27.109375 39.476562 27.109375 39.726562 C 27.351562 39.726562 27.597656 39.726562 27.84375 39.726562 C 27.84375 39.476562 27.84375 39.226562 27.84375 38.976562 C 28.085938 38.976562 28.332031 38.976562 28.574219 38.976562 C 28.574219 39.226562 28.574219 39.476562 28.574219 39.726562 C 28.820312 39.726562 29.066406 39.726562 29.308594 39.726562 C 29.308594 39.476562 29.308594 39.226562 29.308594 38.976562 C 29.554688 38.976562 29.796875 38.976562 30.042969 38.976562 C 30.042969 39.226562 30.042969 39.476562 30.042969 39.726562 C 30.285156 39.726562 30.53125 39.726562 30.773438 39.726562 C 30.773438 39.476562 30.773438 39.226562 30.773438 38.976562 C 31.019531 38.976562 31.265625 38.976562 31.507812 38.976562 C 31.507812 39.226562 31.507812 39.476562 31.507812 39.726562 C 31.753906 39.726562 31.996094 39.726562 32.242188 39.726562 C 32.242188 39.476562 32.242188 39.226562 32.242188 38.976562 C 32.488281 38.976562 32.730469 38.976562 32.976562 38.976562 C 32.976562 39.226562 32.976562 39.476562 32.976562 39.726562 C 33.222656 39.726562 33.464844 39.726562 33.710938 39.726562 C 33.710938 39.476562 33.710938 39.226562 33.710938 38.976562 C 33.953125 38.976562 34.195312 38.976562 34.441406 38.976562 C 34.441406 39.226562 34.441406 39.476562 34.441406 39.726562 C 34.6875 39.726562 34.929688 39.726562 35.175781 39.726562 C 35.175781 39.476562 35.175781 39.226562 35.175781 38.976562 C 35.417969 38.976562 35.664062 38.976562 35.910156 38.976562 C 35.910156 39.226562 35.910156 39.476562 35.910156 39.726562 C 36.152344 39.726562 36.398438 39.726562 36.644531 39.726562 C 36.644531 39.476562 36.644531 39.226562 36.644531 38.976562 C 36.886719 38.976562 37.132812 38.976562 37.375 38.976562 C 37.375 39.226562 37.375 39.476562 37.375 39.726562 C 37.617188 39.726562 37.863281 39.726562 38.109375 39.726562 C 38.109375 39.476562 38.109375 39.226562 38.109375 38.976562 C 38.351562 38.976562 38.597656 38.976562 38.84375 38.976562 C 38.84375 39.226562 38.84375 39.476562 38.84375 39.726562 C 39.085938 39.726562 39.332031 39.726562 39.574219 39.726562 C 39.574219 39.476562 39.574219 39.226562 39.574219 38.976562 C 39.820312 38.976562 40.066406 38.976562 40.308594 38.976562 C 40.308594 39.226562 40.308594 39.476562 40.308594 39.726562 C 40.554688 39.726562 40.796875 39.726562 41.042969 39.726562 C 41.042969 39.476562 41.042969 39.226562 41.042969 38.976562 C 41.285156 38.976562 41.53125 38.976562 41.773438 38.976562 C 41.773438 38.726562 41.773438 38.476562 41.773438 38.226562 C 41.53125 38.226562 41.285156 38.226562 41.042969 38.226562 C 41.042969 37.976562 41.042969 37.726562 41.042969 37.476562 C 40.796875 37.476562 40.554688 37.476562 40.308594 37.476562 C 40.308594 37.226562 40.308594 36.976562 40.308594 36.726562 C 40.066406 36.726562 39.820312 36.726562 39.574219 36.726562 C 39.574219 36.476562 39.574219 36.226562 39.574219 35.976562 C 39.332031 35.976562 39.085938 35.976562 38.84375 35.976562 C 38.84375 35.726562 38.84375 35.476562 38.84375 35.226562 C 38.597656 35.226562 38.351562 35.226562 38.109375 35.226562 C 38.109375 34.976562 38.109375 34.726562 38.109375 34.476562 C 37.863281 34.476562 37.617188 34.476562 37.375 34.476562 C 37.40625 34.234375 37.375 34.019531 37.277344 33.824219 C 37.597656 33.519531 37.90625 33.203125 38.207031 32.875 Z M 38.207031 32.875 "/>
</g>
</svg>
